<svg xmlns="http://www.w3.org/2000/svg" xmlns:xlink="http://www.w3.org/1999/xlink" width="81" height="80" viewBox="0 0 81 80" version="1.1">
    <title>70CD7D95-AA8A-4221-9DC7-08D8184A4A52</title>
    <defs>
        <circle id="path-1" cx="40" cy="40" r="40"/>
    </defs>
    <g id="SITE---HOMEPAGE-+-TUNNEL" stroke="none" stroke-width="1" fill="none" fill-rule="evenodd">
        <g id="TUNNEL2B" transform="translate(-679.000000, -196.000000)">
            <g id="Group-8" transform="translate(420.000000, 196.000000)">
                <g id="Group-5" transform="translate(98.000000, 0.000000)">
                    <g id="recherche" transform="translate(161.500000, 0.000000)">
                        <mask id="mask-2" fill="white">
                            <use xlink:href="#path-1"/>
                        </mask>
                        <use id="Mask" fill="#D5E6F6" xlink:href="#path-1"/>
                        <g id="chercher" mask="url(#mask-2)">
                            <g transform="translate(13.333333, 13.333333)">
                                <polygon id="Path" fill="#5D6D7E" fill-rule="nonzero" points="38.5358784 42.2356902 40.1195498 43.8200069 41.9710683 45.6618522 42.6844882 46.3804399 46.3787146 42.6835332 42.236524 38.5348815"/>
                                <path d="M50.1458185,42.6589886 L62.8942349,55.4069039 C63.8532233,56.3632588 64.4483273,57.6908021 64.4444444,59.1508858 C64.4444444,60.6134869 63.8530974,61.9397715 62.8942349,62.9000283 C61.9378897,63.8551245 60.6135064,64.4444444 59.15092,64.4444444 C57.688963,64.4444444 56.3659642,63.8551245 55.4069758,62.8967557 L42.6593146,50.1475817 L50.1458185,42.6589886 Z" id="Path" fill="#FF8E31" fill-rule="nonzero"/>
                                <path d="M48.3864353,44.4210328 L48.3864353,44.4210328 L49.4223291,43.3831146 L62.1720042,56.132918 C62.9769301,56.9384814 63.419608,58.0098807 63.4189793,59.1502565 C63.4189793,60.2937789 62.9749163,61.3671922 62.1720042,62.1740143 C62.0253679,62.314862 61.8375728,62.3857264 61.6525469,62.3857264 C61.4633672,62.3857264 61.2768308,62.314862 61.1312015,62.1721262 C60.8473691,61.8843891 60.8473691,61.4235816 61.1312015,61.1381101 C61.662868,60.6083263 61.9534973,59.8988011 61.9534973,59.1483684 C61.9553853,58.4010825 61.6631198,57.696718 61.1351034,57.1695774 L48.3864353,44.4210328 Z" id="Path" fill="#FECE59" fill-rule="nonzero"/>
                                <g id="Group" stroke-width="1" fill="none" fill-rule="evenodd">
                                    <path d="M42.6586853,50.1475817 L50.1458185,42.6583593 L49.587468,42.0986186 C49.2503934,41.7602819 48.7895906,41.5547374 48.2773078,41.5547374 C47.7617524,41.5547374 47.2996909,41.7594009 46.9658889,42.0961012 L42.0970622,46.9674943 C41.7626309,47.2994116 41.5538158,47.7614777 41.5538158,48.2776676 C41.5538158,48.7861796 41.7622533,49.2540357 42.0970622,49.5839391 L42.6586853,50.1475817 Z" id="Path" fill="#34495E" fill-rule="nonzero"/>
                                    <path d="M0,23.9351773 C0,10.7181472 10.7167807,0 23.936321,0 C37.1571201,0 47.8732714,10.7187766 47.8732714,23.9351773 C47.8732714,37.1561094 37.1558614,47.8723685 23.936321,47.8755153 C10.7167807,47.8723685 0,37.1557318 0,23.9351773 Z" id="Path" fill="#34495E" fill-rule="nonzero"/>
                                </g>
                                <path d="M23.936321,45.2819787 C35.7219729,45.2819787 45.2812713,35.7261084 45.2812713,23.9349256 C45.2812713,12.1505397 35.7222247,2.59164857 23.936321,2.59164857 C12.1487811,2.59164857 2.59061555,12.1501621 2.59061555,23.9351773 C2.59061555,35.7261084 12.1487811,45.2819787 23.936321,45.2819787 Z" id="Path" fill="#5D6D7E" fill-rule="nonzero"/>
                                <path d="M23.936321,43.5735549 C34.7794732,43.5735549 43.5724871,34.783851 43.5724871,23.9351773 C43.5724871,13.0945593 34.7790956,4.29944303 23.936321,4.29944303 C13.0935465,4.29944303 4.29914803,13.0945593 4.29914803,23.9351773 C4.29914803,34.7832216 13.0912808,43.5735549 23.936321,43.5735549 Z" id="Path" fill="#CEE2F2" fill-rule="nonzero"/>
                                <g id="Group" stroke-width="1" fill="none" fill-rule="evenodd" transform="translate(6.717696, 6.749683)">
                                    <path d="M17.7350611,0.773650287 C17.4006297,0.277473567 16.8257905,-0.0331718282 16.1931778,0.00282678728 C13.4826101,0.167463812 10.9209442,0.930861024 8.58005075,2.28999756 C7.75586697,2.77207692 7.4731674,3.83441368 7.95335389,4.66250771 C8.43341451,5.48028045 9.49712513,5.77129024 10.3187916,5.28467958 C12.1860436,4.20749024 14.2298885,3.59551378 16.3965806,3.4634769 C17.3483945,3.4138844 18.0805688,2.59283906 18.0215367,1.64164487 C18.0105862,1.31199322 17.900074,1.01557105 17.7350611,0.773650287 Z" id="Path" fill="#FFFFFF" fill-rule="nonzero"/>
                                    <path d="M6.6167614,6.46671804 C6.52462601,6.32851356 6.40442205,6.20025276 6.27263824,6.09099822 C5.52926172,5.48292371 4.43924468,5.60124083 3.8382249,6.34399548 C2.06927577,8.51574412 0.851880293,11.1213642 0.314423855,13.8943904 C-0.321335505,17.1878861 0.011207799,20.5599242 1.27404163,23.6497634 C1.64207971,24.5404145 2.65506552,24.9586781 3.53865901,24.5945383 C4.42476986,24.2355591 4.84693119,23.2263392 4.4840537,22.3356881 C3.47710955,19.871671 3.21580755,17.1807116 3.7272093,14.5520574 C4.14546873,12.3383943 5.11792504,10.2600407 6.52890552,8.52682062 C7.01953906,7.92340327 7.03250346,7.07668059 6.6167614,6.46671804 Z" id="Path" fill="#FFFFFF" fill-rule="nonzero"/>
                                </g>
                            </g>
                        </g>
                    </g>
                </g>
            </g>
        </g>
    </g>
</svg>